<svg xmlns="http://www.w3.org/2000/svg" xmlns:xlink="http://www.w3.org/1999/xlink" width="290" height="301" viewBox="0 0 290 301"><defs><linearGradient id="a" y1="0.5" x2="1" y2="0.5" gradientUnits="objectBoundingBox"><stop offset="0" stop-color="#ecf8fa"/><stop offset="0.999" stop-color="#d0eef3"/></linearGradient><linearGradient id="b" y1="0.5" x2="1" y2="0.5" gradientUnits="objectBoundingBox"><stop offset="0" stop-color="#f1f5b8"/><stop offset="0.999" stop-color="#93ca53"/></linearGradient><linearGradient id="f" y1="0.5" x2="1" y2="0.5" gradientUnits="objectBoundingBox"><stop offset="0" stop-color="#0066cf"/><stop offset="1" stop-color="#00339f"/></linearGradient><linearGradient id="g" x1="0.5" y1="-0.233" x2="0.5" y2="1.02" gradientUnits="objectBoundingBox"><stop offset="0" stop-color="#00adc6" stop-opacity="0.2"/><stop offset="0.705" stop-color="#00adc6" stop-opacity="0"/></linearGradient><linearGradient id="h" x1="0.814" x2="1.814" xlink:href="#f"/><linearGradient id="i" x1="0.355" y1="0.689" x2="1.242" y2="0.179" gradientUnits="objectBoundingBox"><stop offset="0.37" stop-color="#9da1a1"/><stop offset="0.731" stop-color="#b6b8b8"/><stop offset="1" stop-color="#c4c6c6"/></linearGradient><clipPath id="s"><rect width="290" height="301"/></clipPath></defs><g id="r" clip-path="url(#s)"><rect width="290" height="301" fill="#fff"/><g transform="translate(-516.464 -738.788)"><rect width="98.811" height="170.884" rx="1" transform="translate(591.878 790.667)" fill="url(#a)"/><path d="M715.916,950.952s3.312,15.9-2.326,17.4l.8,1.912s5.561.6,5.561-11.086V948.51Z" fill="#d39220"/><path d="M722.191,922.261s7.744,17.03,18.248,23.354c0,0,2.081,1.049,3.4-.029,0,0,24.326-19.74,25-51.159a2.819,2.819,0,0,0-1.974-3.226l-2.453-.776-1.873-.726s1.865,29-21.215,32.833C741.328,922.532,731.922,927.885,722.191,922.261Z" fill="#00339f"/><path d="M553.656,949.923l-1.439,2.869s8.41-3.6,14.654-1.052,11.342,12.236,23.033,11V903.8s-18.36,6.642-21.361,16.6C568.543,920.4,564.385,944.9,553.656,949.923Z" fill="#78bd20" opacity="0.78"/><path d="M529.628,937.062c4.13-7.158,10.152-12.349,17.154-16.528a49.366,49.366,0,0,1,14.356-5.637c.433-.1.885-.12,1.328-.177,1.133-.449,1.352.5,1.619,1.161a20.385,20.385,0,0,1,1.557,6.452,14.569,14.569,0,0,0,1.922,7.05,36.992,36.992,0,0,0,.979-8.98,5.369,5.369,0,0,1,.06-1.511,7.37,7.37,0,0,0-1.839-7.166c-1.144-1.289-2.054-2.794-3.521-3.78-1.485-1.131-2.838-2.469-4.707-3a15.973,15.973,0,0,0-4.4-1.614c-.747-.307-1.838.034-2.135-1.124a32.117,32.117,0,0,1,20.267.319,24.622,24.622,0,0,1,8.15,4.6,1.671,1.671,0,0,0,1.023.522,16.27,16.27,0,0,1,5.129,7.1,13.989,13.989,0,0,1,1.107,6.876c0,.906.009,1.811-.008,2.717-.3,1.032,0,2.167-.541,3.159a7.826,7.826,0,0,1-4.728,3.153,2.923,2.923,0,0,1-.542.074c-1.371-.068-2.779.28-4.1-.353a13.287,13.287,0,0,1-2.436-1.577,11.706,11.706,0,0,1-2.69-3.876c-.039,3.739-1.476,7.356-.572,11.1a1.355,1.355,0,0,1-.361,1.531,17.183,17.183,0,0,1-4.8,1.366,3.692,3.692,0,0,1-1.562-1.491c-.88-1.765-2.5-2.27-4.159-2.817a23.3,23.3,0,0,0-5.058-1.22c-3.348-.49-6.665-1.361-10.093-.764a10.8,10.8,0,0,1-1.374.189,38.348,38.348,0,0,0-6.02,1.126,20.688,20.688,0,0,0-4.473,1.69c-1.1.515-2.186,1.078-3.265,1.644C530.461,937.508,529.9,937.95,529.628,937.062Z" fill="url(#b)"/><path d="M587.036,955.234c-1.576.995-2.53.233-4.068-.409-1.45-.988-2.941-1.923-4.479-3.013,1.966,2.691,3.721,5.41,5.519,8.1.512.766,1.259,1.456,1.135,2.52l-2.045-.32c-.1-.009-.209-.022-.312-.038.929-.464.223-.822-.072-1.221a79.846,79.846,0,0,1-4.941-7.239c-1.1-1.887-2.239-3.843-4.684-4.322a34.156,34.156,0,0,0-4.387-1.283,9.49,9.49,0,0,0-2.642-.313c-1.019,0-2.037.009-3.055-.007-1.143.143-2.284.307-3.422.485a11.221,11.221,0,0,0-3.778,1.337c-.7.223-1.313.9-2.149.413,1.21-2.654,3.284-4.579,5.432-6.441a5.029,5.029,0,0,1,1.942-2.084c1.387-.909,2.9-1.6,4.32-2.448.462-.277.949-.623,1.521-.205a21.75,21.75,0,0,1,4.738-1.352c.956-1.314,1.8-.377,2.675.123.2.1-.053-.025.145.083,1.961,1.065,2.206.991,2.333-1.284.094-1.672.473-3.3.509-4.977a1.667,1.667,0,0,1,.429-1.387c1.423.667,2.934.2,4.4.342.065.173.025.416-.111.429-1.75.166-1.733,1.436-1.877,2.746a25.22,25.22,0,0,0-.273,5.68,7.133,7.133,0,0,0,2.589-2.365,28.6,28.6,0,0,0,2.949-5.291c.224-.5.226-1.293,1.123-1.2.87,1.4.409,2.911.376,4.387a10.783,10.783,0,0,1-1.416,3.365,12.1,12.1,0,0,1-1.907,1.917,13.377,13.377,0,0,1-1.867,1.1,16.579,16.579,0,0,1-2.564.652c-1.5.3-2.837-.274-4.358-.9,2.543,2.931,4.9,5.779,8.265,7.531,1.147.714,2.943.625,4.259.476" fill="url(#b)"/><path d="M552,902.212s-2.223,0,4.484,4.4,5.983,8.106,5.983,8.106,3.014,3.538,2.717,7.788,1.993,8.948,2.525,7.88,1.277-11.586,1.768-14.983C569.476,915.405,566.871,904.585,552,902.212Z" fill="url(#b)"/><path d="M529.628,937.062s-3.442,1.852,6.43,1.485,18.024-.928,23.03,4.935l7.783-4.737S559.266,924.423,529.628,937.062Z" fill="url(#b)"/><path d="M602.655,788.581a6.156,6.156,0,0,1,2.342-.253q39.237,0,78.476-.005a10.425,10.425,0,0,1,9.128,4.551,9.782,9.782,0,0,1,1.676,5.583c.044,2.424.014,4.849.014,7.273q0,38.9-.008,77.8a5.559,5.559,0,0,1-.419,3.137,5.215,5.215,0,0,1-4.571.084c-.72-1.009-.479-2.173-.48-3.279q-.021-37.973-.011-75.944c0-.733.014-1.466-.011-2.2a8.411,8.411,0,0,0-7.878-8.418,23.631,23.631,0,0,0-2.366-.055H603.279c-.62,0-1.241-.01-1.86.016-5.245.22-8.582,3.629-8.618,8.9-.042,6.258-.011,12.517-.011,18.775v122.8c0,.733-.01,1.466.008,2.2a8.389,8.389,0,0,0,8.716,8.608c8.118.054,16.237.008,24.356.022a5.778,5.778,0,0,1,2.823.342,1.769,1.769,0,0,1,.564,1.473c.06,1.047.058,2.1.015,3.144-.056,1.028.3,2.123-.49,3.033-9.795,0-19.592-.107-29.385.037-3.709.055-6.863-.842-9.493-3.464-1.969-1.318-2.226-3.421-2.525-5.508-.041-7.286,0-14.57-.013-21.853q.016-6.944,0-13.887c-.01-4.944-.107-9.887-.073-14.831a5.865,5.865,0,0,1,.5-2.786q.009-52.465-.013-104.93a9.9,9.9,0,0,1,3.04-7.715,20.94,20.94,0,0,1,1.675-1.264,8.494,8.494,0,0,1,7.568-1.211" fill="url(#f)"/><path d="M629.4,893.267a8.744,8.744,0,0,0-.907.8c0-2.33,2.951-7.365,10.247-7.585h73.72s5.449-.727,7.493,3.321l-4.037,3.463s-.8-3.509-11.9-3.509H703.2l-69.156,1.722a8.033,8.033,0,0,1-4.644,1.788Z" fill="#d39220"/><rect width="89.186" height="22.261" rx="8.228" transform="translate(628.383 889.758)" fill="#f0b334"/><circle cx="3.153" cy="3.153" r="3.153" transform="translate(636.012 895.187)" fill="#ffca6e" opacity="0.66"/><circle cx="3.153" cy="3.153" r="3.153" transform="translate(646.5 895.187)" fill="#ffca6e" opacity="0.66"/><circle cx="3.153" cy="3.153" r="3.153" transform="translate(656.988 895.187)" fill="#ffca6e" opacity="0.66"/><path d="M629.4,923.42a8.875,8.875,0,0,0-.907.8c0-2.33,2.951-7.364,10.247-7.585h73.72s8.121-.288,8.121,7.4l-4.017,5.236s-1.444-9.361-12.55-9.361H703.2l-69.156,1.723A8.028,8.028,0,0,1,629.4,923.42Z" fill="#d39220"/><rect width="89.186" height="22.261" rx="8.228" transform="translate(628.383 919.911)" fill="#f0b334"/><circle cx="3.153" cy="3.153" r="3.153" transform="translate(636.012 925.341)" fill="#ffca6e" opacity="0.66"/><circle cx="3.153" cy="3.153" r="3.153" transform="translate(646.5 925.341)" fill="#ffca6e" opacity="0.66"/><circle cx="3.153" cy="3.153" r="3.153" transform="translate(656.988 925.341)" fill="#ffca6e" opacity="0.66"/><path d="M629.4,950.952a8.764,8.764,0,0,0-.907.8c0-2.33,2.951-7.364,10.247-7.585h73.72s7.527,0,7.493,4.342l-4.037,2.442s-.8-3.509-11.9-3.509H703.2l-69.156,1.723A8.034,8.034,0,0,1,629.4,950.952Z" fill="#d39220"/><rect width="89.186" height="22.261" rx="8.228" transform="translate(628.383 947.443)" fill="#f0b334"/><circle cx="3.153" cy="3.153" r="3.153" transform="translate(636.012 952.872)" fill="#ffca6e" opacity="0.66"/><circle cx="3.153" cy="3.153" r="3.153" transform="translate(646.5 952.872)" fill="#ffca6e" opacity="0.66"/><circle cx="3.153" cy="3.153" r="3.153" transform="translate(656.988 952.872)" fill="#ffca6e" opacity="0.66"/><path d="M570.252,991.528q-11.342-2.709-22.872-4.452c-4.532-.687-9.09-1.54-13.031-4.176-2.377-1.591-2.656-4.174-.732-6.332a22.382,22.382,0,0,1,7.334-4.979c7.744-3.724,16.021-5.74,24.4-7.32,4-.754,8.064-1.2,12.133-1.574,1.863-.174,3.794.078,5.609-.584.69-.508,1.4-.047,2.1-.048a8.1,8.1,0,0,0,2.183.23,8.8,8.8,0,0,1,2.669.174,6,6,0,0,1,1.55,1.006,10.389,10.389,0,0,0,6.591,2.172c9.223-.037,18.446-.017,27.669-.012a11.134,11.134,0,0,1,2.52.14,1.568,1.568,0,0,1,.75.427,4.558,4.558,0,0,1,.611,1.182,3.778,3.778,0,0,0,2.057,2.06,7,7,0,0,0,3.129.591c3.21.009,6.421.005,9.633.03,13.95-.075,27.9.056,41.846.016a3.54,3.54,0,0,1,1.328.177,1.393,1.393,0,0,1,.757,1.055c.786,3.4,2.011,6.681,2.547,10.137.432,2.785-.208,3.483-3.013,3.333-4.209-.226-8.418-.417-12.631-.549a4.383,4.383,0,0,0-2.721.7,1.765,1.765,0,0,1-1.575-.264c-.322-.222-.553-.558-.89-.763-.837-.509-1.583-.412-1.852.588a23.249,23.249,0,0,0-.877,6.821c1.6-.927,1.784-2.644,2.885-3.626a2.485,2.485,0,0,1,1.969.151,3.212,3.212,0,0,0,2.317,1.2,137.506,137.506,0,0,0,17.19,1.006c3.52-.112,4.51-.768,5.7-4.112a35.784,35.784,0,0,0,1.982-10.418c.583-2.025.584-2.036,2.662-1.825a13.726,13.726,0,0,0,3.521-.169c1.628-.255,1.987,0,2.042,1.562a43.478,43.478,0,0,1-.055,6.567c-.236,2.02-.113,4.039-.246,6.054a3.708,3.708,0,0,0,.966,2.944,1.921,1.921,0,0,1-.081,1.925c-.979,2.014-.682,2.575,1.5,2.544,1.949-.027,3.927.276,5.937-.321-1.23-1.3-3.176-1.065-4.295-2.346a1.623,1.623,0,0,1,.044-1.356,6.3,6.3,0,0,0,.98-3.17c.719-5.438,1.612-10.862,1.423-16.379a3.028,3.028,0,0,1,.14-.994c.222-.634.79-.91,1.3-1.249a5.518,5.518,0,0,0,1.273-1.057c.959-.7,1.381-1.981,2.584-2.426a5.775,5.775,0,0,1,1.223-.107c.322,0,.644,0,.965-.006a5.478,5.478,0,0,0,2.235-.589c1.675-.628,2.74-2.088,4.164-3.06a3.05,3.05,0,0,1,1.723-.505c1.28.187,2.583-.055,3.859.211a11.311,11.311,0,0,0,3.454.152c1.217.078,2.477-.248,3.633.388a3.293,3.293,0,0,1,.263,2.9c-.481.849-1.329.659-2.081.709a18.9,18.9,0,0,0-6.343,1.3c-.781.338-1.487.836-.326,1.632a13.06,13.06,0,0,0,6.2,1.464,54.667,54.667,0,0,0,11.306-.27,10.084,10.084,0,0,0,3.842-1.2c1.337-.557.8-1.1-.065-1.505a19.487,19.487,0,0,0-6.55-1.45c-1.074-.109-2.26.18-3.174-.706-.218-.864-.413-1.723.389-2.42,4.513.388,9.024.775,13.529,1.265a143.049,143.049,0,0,1,17.377,2.83c5.682,1.337,11.33,2.836,16.129,6.445a6.552,6.552,0,0,1,1.622,9.36c-2.339,3.553-5.874,5.631-9.372,7.759-.9.551-1.893.967-2.842,1.444a1.938,1.938,0,0,1-.942.887c-.379.2-.726.463-1.1.668a11.933,11.933,0,0,0-1.569.668c-.257.134-.517.261-.777.392s-.536.267-.814.38c-.873.316-1.726.68-2.583,1.035-.888.4-1.839.625-2.721,1.039-1.576.661-3.234,1.085-4.824,1.709a197.72,197.72,0,0,1-23.144,6.2c-1.69.442-3.438.581-5.132,1-1.919.365-3.841.712-5.771,1.021-1.5.171-2.988.474-4.486.692-3.7.562-7.406,1.076-11.14,1.361-3.108.164-6.19.7-9.312.667a8.969,8.969,0,0,0-2.951.235c-1.231.187-2.475.028-3.708.155-7.246.743-14.49-.053-21.735,0-1.033-.129-2.081.018-3.113-.158a16.063,16.063,0,0,0-4.2-.234c-2.769.173-5.512-.273-8.27-.332a21.085,21.085,0,0,1-2.705-.117,7.472,7.472,0,0,0-2.6-.233c-2.672-.182-5.344-.352-8.007-.64-4.154-.436-8.321-.758-12.458-1.345-2.384-.4-4.794-.62-7.178-1.021-2.725-.4-5.446-.828-8.153-1.335-3.507-.527-6.951-1.373-10.415-2.11-7.382-1.573-14.669-3.534-21.963-5.464a45.425,45.425,0,0,0-4.767-1.416c-1.193-.422-2.459-.586-3.65-1.014a11.279,11.279,0,0,0-1.4-.389c-.453-.148-.924-.23-1.383-.356-.381-.117-.763-.232-1.146-.342-1.314-.738-2.9.026-4.2-.75C571.776,991.839,570.666,992.2,570.252,991.528Z" fill="url(#g)"/><path d="M743.839,883.262a6.7,6.7,0,0,0-3.4-.019c-.692-.763-.44-1.706-.461-2.581-.069-2.857.169-5.71-.839-8.509-2.246-6.236-9.007-10.582-15.211-9.633a14.69,14.69,0,0,0-12.8,13.965c-.052,2-.345,4.061,1.471,5.624a2.613,2.613,0,0,1,.539,2.073,11.06,11.06,0,0,0,.246,2.684c.211,1.421-.574,2.02-1.829,2.309a10.563,10.563,0,0,1-5.943-.2c-.979-.519-1.41-1.217-.728-2.27.06-2.138-.02-4.288,2.06-5.755.642-.453.312-1.389.283-2.093a19.54,19.54,0,0,1,3.1-12.2,18.284,18.284,0,0,1,33.507,10.182C743.849,878.981,743.84,881.122,743.839,883.262Z" fill="#e2e729"/><path d="M739.927,950.905c.111-1.731-.286-3.488.266-5.2a4.676,4.676,0,0,1,3.651-.123q.039,8.59.077,17.181,0,1.321-.009,2.643a2.622,2.622,0,0,1,.385,1.8,6.149,6.149,0,0,1-.05,1.516,1.945,1.945,0,0,1-2.208,1.823A1.918,1.918,0,0,1,740,968.734a7.842,7.842,0,0,1-.045-1.516,2.592,2.592,0,0,1,.438-1.8" fill="#e2e729"/><path d="M600.444,785.45c-3.483.258-6.315,2.867-8.557,4.875-.036,0-.072.037-.109.111s0,.152.1.231a15.779,15.779,0,0,1,7.4-1.831c.007.01.008.02.016.03h.682c26.886,0,56.823,0,83.656.008,6.112,0,10.111,4.022,10.112,10.167v87.6a3.976,3.976,0,0,0,4.019.206c1.111-.528.518-1.834.519-2.771q.046-44.076.018-88.151a4.975,4.975,0,0,0-.133-2c-.4-4.88-4.607-8.475-10.046-8.478H600.444" fill="url(#h)"/><path d="M687.968,965.82l.1-.723a3.163,3.163,0,0,1,2.51,1.137A15.486,15.486,0,0,0,692.3,970.2a7.5,7.5,0,0,0,5.919,3.291c1.87.093,1.9.2,1.625,2.148A30.627,30.627,0,0,1,697.682,987c-.848,2.413-2.541,3.457-5.1,3.548-6.314.224-12.56-.557-18.826-1.068a1.649,1.649,0,0,1-1.649-1.6,2.665,2.665,0,0,1,.323-3.091,1.716,1.716,0,0,1,1.826-1.081c4.965.251,9.937.371,14.9.642,1.152.063,1.569-.274,1.541-1.358a27.244,27.244,0,0,0-1.315-6.409,34.062,34.062,0,0,1-1.393-6.06c-.816-1.334-.425-2.767-.344-4.176A2.146,2.146,0,0,1,687.968,965.82Z" fill="url(#i)"/><path d="M699.847,975.644c.085-1.074-.056-1.741-1.485-1.75a8.172,8.172,0,0,1-8.01-7.719c.612-.494,1.3-.246,1.937-.138a47.908,47.908,0,0,0,9.219.228,4.072,4.072,0,0,0,3.463-1.387c.946-.692,1.8-.027,2.665.216.638.179,1.242.472,1.859.714a22.335,22.335,0,0,1,2.6,1.384,10.574,10.574,0,0,1,1.5,1.161,2.248,2.248,0,0,1,.8,1.912c.294,6.639-.815,13.155-1.682,19.7-.1.721-.314,1.171-1.073,1.238a2.593,2.593,0,0,1-3.3-.329c-1.2-.329-1.453-1.155-1.411-2.315.161-4.425.174-8.856.389-13.277.072-1.47-.533-1.633-1.618-1.289a5.99,5.99,0,0,1-3.492.2C700.618,973.689,700.135,974.356,699.847,975.644Z" fill="#9da1a1"/><path d="M740.393,967.254c.156,1.234-.412,2.948,1.7,2.989,2.259.044,1.579-1.815,1.826-3.055a1.329,1.329,0,0,1,1.216-.418,34.973,34.973,0,0,1,6.924,1.038c.626.205,1.322.33,1.56,1.1-.085.718-.7.778-1.207.979a14.6,14.6,0,0,1-5.066.939c-4.454.08-8.947.47-13.343-.643-.853-.216-1.96-.116-2.353-1.258.154-.648.7-.844,1.231-1.006a24.441,24.441,0,0,1,6.952-.969A.678.678,0,0,1,740.393,967.254Z" fill="#f4f4f4"/><path d="M753.616,968.905c-3.084-1.417-6.427-1.37-9.7-1.717q0-.888-.005-1.778a21.549,21.549,0,0,1,10.082,1.751c.56.272,1.1.682.859,1.436C754.63,969.3,754.1,969.083,753.616,968.905Z" fill="#b4e6ed"/><path d="M740.393,967.254c-2.945.4-5.979.334-8.746,1.668-.466.169-.886.207-1.029-.411a1.108,1.108,0,0,1,.552-1.281,12.566,12.566,0,0,1,4.249-1.395,25.32,25.32,0,0,1,4.971-.418Q740.391,966.335,740.393,967.254Z" fill="#b4e6ed"/><path d="M640.721,794.591c-2.027,0-4.053.011-6.08,0-1.174-.008-2.194-.295-2.149-1.756.041-1.344.969-1.6,2.109-1.6q6.247.024,12.5,0c1.09,0,1.949.316,1.991,1.54.043,1.271-.771,1.8-1.951,1.81C645,794.6,642.86,794.59,640.721,794.591Z" fill="#f4f4fe"/><path d="M744.15,911.052c2.521-2.3,2.52-2.3.186-4.718-.191-.2-.356-.42-.534-.63-.554-1.29-.914-2.577.062-3.843,2.646.859,3.7,2.573,3.75,6.093a2.5,2.5,0,0,1-1.545,3.008l-1.585,1.061C743.736,911.918,743.9,911.5,744.15,911.052Z" fill="#fdfdfc"/><path d="M740.469,904.819a13.623,13.623,0,0,1-3.727,3.515,5.349,5.349,0,0,1,3.526-6.541C741.268,902.74,740.96,903.773,740.469,904.819Z" fill="#fbfbfc"/><path d="M740.412,916.037c1.01.336,1.343-.689,2.026-1.009a2.539,2.539,0,0,1,1.669,1.667,5.305,5.305,0,0,1-.257,2.465c-1.353,1.354-2.088,1.368-3.467.067a5.3,5.3,0,0,1,.029-3.19Z" fill="#e2e729"/><path d="M740.469,904.819c-.145-1,.149-2.035-.2-3.025a4.4,4.4,0,0,1,3.6.067q-.031,1.922-.062,3.842a4.515,4.515,0,0,1-.861-.758C742.152,903.782,741.342,903.881,740.469,904.819Z" fill="#e2e729"/><path d="M743.85,919.16l-.081-2.764a8.939,8.939,0,0,1,.056-5.337,2.916,2.916,0,0,1,.325-.007c.013.358-.052.742.334.971q-.012,2.58-.025,5.16a2.276,2.276,0,0,1-.609,1.977Z" fill="#f3e7d8"/><path d="M740.412,916.037q-.015,1.594-.029,3.19a1.841,1.841,0,0,1-.553-1.852C740.338,917.065,739.7,916.255,740.412,916.037Z" fill="#f6f6f7"/><path d="M671.991,887.282c-1.905,1.052-3.873,1.986-5.762,3.073-.619.356-1.327.975-2.12.234-.571-1.99.482-3.73.854-5.575.56-1.672.858-3.413,1.321-5.11.343-.99.522-2.078,1.551-2.669,1.423-.456,2.672-1.426,4.243-1.451,2.516-1.083,5.028-2.176,7.553-3.238.427-.18.9-.6,1.379-.086.4.431.029.848-.1,1.25-.979,3.094-1.991,6.178-2.948,9.279a2.7,2.7,0,0,1-1.49,1.687" fill="url(#f)"/><path d="M711.317,944.212c.816-.073,1.354-.684,2.021-1.045a16.9,16.9,0,0,1,3.874,3.321c-.538,1.541-1.78,2.537-2.841,3.676a2.191,2.191,0,0,1-.47.208c-2.6.971-4.956-.049-7.462-.98-.763,4.536-2.036,8.938-.946,13.527a3.066,3.066,0,0,1,.089,1.337,1.158,1.158,0,0,1-.259.464c-.036,1.187-.775,1.632-1.836,1.769a39.141,39.141,0,0,1-13.134-.315,6.917,6.917,0,0,1-2.287-1.077,127.6,127.6,0,0,1,1.821-14.864c.053-.33.072-.666.106-1-.494-1.271.2-2.418.372-3.62.43-1.466.714-2.974,1.246-4.411a3.56,3.56,0,0,1,.174-.473,20.862,20.862,0,0,1,1.1-2.258c.417-.516.888-.866,1.582-.492.462.549.4,1.275.649,1.9.849,1.58,1.217,1.716,2.747.936A8.311,8.311,0,0,1,699.9,940a2.335,2.335,0,0,0,1.993-2.183c.22-.408.451-.789.974-.353,3.122,0,4.106,2.726,5.779,4.562.6.661,1.123,1.4,1.681,2.1a.652.652,0,0,0,.99.086Z" fill="#c4c6c6"/><path d="M664.291,854.2c.783.428,1.563.864,2.352,1.283a4.673,4.673,0,0,1,2.461,6.065,15.43,15.43,0,0,1-2.793,5.148,2.61,2.61,0,0,0-1.8,2.077c-.34,1.749-1.226,3.382-1.089,5.23.018,1.937.011,3.872.11,5.8-.836,1.247-1.592.283-2.189-.2-1.173-.945-2.256-2.007-3.377-3.018-2.12-1.913-4.079-4-6.086-6.031a2.3,2.3,0,0,1-.692-1.131c-.072-1.112.659-1.866,1.216-2.693,1.306-1.94,2.857-3.723,3.688-5.963a26.215,26.215,0,0,1-3.154,5.2c-.271.407-.552.867-1.132.929-1.844-.751-3.751-1.413-4.775-3.338a2.758,2.758,0,0,1,.446-1.758,64.154,64.154,0,0,1,4.285-5.8,6.7,6.7,0,0,1,5.7-2.556,2.119,2.119,0,0,1,1.058.562,6.442,6.442,0,0,0,2.223,1.155c.864.275,1.648.319,2.2-.606C663.257,854.042,663.664,853.659,664.291,854.2Z" fill="#c4c6c6"/><path d="M646.853,907.861a12.5,12.5,0,0,0,.9-2.176c.113-.315.226-.63.325-.95.453-1.332.888-2.671,1.329-4.008a50.765,50.765,0,0,0,1.749-4.972A38.1,38.1,0,0,0,652.7,890.8c-.12-1.162-1.036-.6-1.579-.664-2.47-.283-4.547-1.148-5.751-3.488a21.737,21.737,0,0,1-2.341-6.81.869.869,0,0,1,.65.078c3.621,2.282,7.672,2.536,11.786,2.54.927,0,1.916-.226,2.742.443.075,1.031-.867.982-1.43,1.322-.594.359-1.612.328-1.606,1.241.006.866.986.953,1.579,1.327,2.229,1.409,4.722,2.34,6.916,3.814.288.91-.4,1.537-.661,2.289-.513.99-1.02,1.984-1.486,3-.9,1.7-1.735,3.44-2.586,5.168-1.232,2.538-2.633,4.992-3.712,7.6-.389.954-.893,1.854-1.328,2.787a4.167,4.167,0,0,1-.226.414c-.788,1.436-1.511,2.907-2.254,4.368a1.281,1.281,0,0,1-.339.364,2.159,2.159,0,0,1-1.249.186,3.222,3.222,0,0,1-.507-.088c-1.122-.343-2.418-.252-3.266-1.289-.522-.692-.955-1.373-.394-2.28" fill="#9da1a1"/><path d="M647.034,863.563a24.485,24.485,0,0,0,4.8,3.1c.371,1.015-1.294,1.719-.428,2.809,3.354,3.269,6.72,6.526,10.051,9.819a3.53,3.53,0,0,0,1.785.806.922.922,0,0,1,.915.381c.633,1.344,1.732,2.593.894,4.249-.706.289-1.16-.181-1.626-.564a9.942,9.942,0,0,0-2.856-1.691c-3.451-2.323-6.991-4.517-10.31-7.034-1.251-.912-2.456-1.881-3.669-2.842a2.667,2.667,0,0,1-1.272-1.85,3,3,0,0,1-.262-3.474,22.663,22.663,0,0,1,1.978-3.709Z" fill="#00adc6"/><path d="M659.321,851.172c-2.022-2.576-1.2-6.551.625-8.578,1.951-2.171,4.964-2.635,8.046-1.162a15.515,15.515,0,0,1,2.452,1.468c2.143,1.567,2.115,3.278-.034,4.885-.314.235-.65.44-.976.659a2.25,2.25,0,0,1-2.387.026c-.97-.381-1.619-.328-1.777.869a1.957,1.957,0,0,1-.236.624c-.158.3-.339.6-.731.594s-.535-.339-.651-.661c-.166-.462-.026-1.018-.5-1.495-1.3.866-.336,2.756-1.589,3.6C660.448,852.716,659.774,852.244,659.321,851.172Z" fill="url(#f)"/><path d="M645.323,870.748c1.467,1.73,3.407,2.915,5.079,4.409.7,4.011,1.563,4.819,5.655,5.722,1.364.3,2.945.072,4.01,1.324-.325.9-.871,1.35-1.855.932a4.1,4.1,0,0,0-2.3-.188,31.409,31.409,0,0,1-8.631-.882,9.941,9.941,0,0,1-4.255-2.226,47.961,47.961,0,0,1,2.3-9.091Z" fill="#b2b2b2"/><path d="M661.28,851.869a3,3,0,0,0,.774-2.326c0-.8.194-1.874,1.049-1.884,1.042-.012.752,1.118.835,1.847.035.3-.117.693.3.857,1.27-.44-.079-2.751,1.738-2.583,1.141.1,2.25.682,3.454.665-1.179,2.4-2.372,4.781-5.143,5.755-.263.038-.638-.022-.77.13-1.524,1.759-2.216,1.883-4.318.681a2.007,2.007,0,0,1-.99-.839,1.826,1.826,0,0,1,2.034-1.306C661.253,853.007,661.1,852.362,661.28,851.869Z" fill="#00adc6"/><path d="M662.991,873.828a12.842,12.842,0,0,1,1.387-5.439c.079-.145.163-.149.252-.01,2.272,2.681,4.985,4.918,7.448,7.4a15.312,15.312,0,0,1-4.116,1.672,10.751,10.751,0,0,1-4.971-3.623Z" fill="#00adc6"/><path d="M644.983,916.749l.316-.584.747-.76,3.457,1.011a2.3,2.3,0,0,1-1.065,2.486C646.96,918.71,645.422,918.611,644.983,916.749Z" fill="#00adc6"/><path d="M661.28,851.869c-.034.622.59.908.952,1.725a3.441,3.441,0,0,0-4.019.578l-.747-.718c.481-.873,1.576-1.246,1.855-2.283C659.935,851.514,660.285,852.6,661.28,851.869Z" fill="#00a3af"/><path d="M664.63,868.379c-.084,0-.168.008-.252.01.593-.624.109-2.477,1.934-1.693a4.917,4.917,0,0,1-1.682,1.683Z" fill="#00adc6"/><path d="M731.452,926.187a19.525,19.525,0,0,0,6.92,1.847c6.758.456,12.218-2.328,16.995-6.813,1.057-1.015,1.932-2.188,2.885-3.292.931-1.208,1.614-2.572,2.43-3.851.628-1.24,1.224-2.5,1.752-3.781a32.281,32.281,0,0,0,1.36-4.18c.511-1.76.674-3.587,1.012-5.381a13.855,13.855,0,0,0,.128-2.558,13.28,13.28,0,0,0-.088-1.964,29.788,29.788,0,0,1-.43-5.789c-.624-.243-1.241-.508-1.873-.726q-9.35-3.225-18.7-6.437c-1.036-.993-2.222-.7-3.409-.394-6.7,2.132-13.266,4.636-19.969,6.746-1.591.641-3.38.859-4.641,2.194a2.256,2.256,0,0,0-.853,1.382,2.671,2.671,0,0,0-.034.565c.02,1.534-.069,3.067-.013,4.6a7.72,7.72,0,0,0,.285,2.493c.071.348.119.7.223,1.042a16.79,16.79,0,0,1,.346,2.005c.226.641.175,1.328.339,1.979.153.48.226.978.348,1.465.217.648.161,1.342.345,1.995.95,2.928,1.826,5.88,2.931,8.755.27.6.606,1.179.832,1.8.53.826.6,1.93,1.524,2.515,1.145.3,1.753-.526,2.43-1.174,3.928-3.761,7.536-7.851,11.676-11.4a2.1,2.1,0,0,0,.848-1.581c-.371-2.959.57-4.717,3.249-6.087a6.689,6.689,0,0,1,3.349.019c2.655.954,3.465,3.116,3.7,5.655.086.056.167.118.252.177a7.722,7.722,0,0,1-1.415,2.789,1.2,1.2,0,0,0-.2-.008,2.4,2.4,0,0,0-1.8,1.445,10.34,10.34,0,0,0-.15,2.186c-.1,1.39.3,2.822-.342,4.172-1.167,1.359-1.5,1.4-2.956.388-.509-.388-.536-1.05-.874-1.534a.5.5,0,0,0-.151-.063,3.214,3.214,0,0,0-1.6-3.782h0c-.36-.72-.707-.447-1.126-.025q-5.067,5.107-10.156,10.194c-.149.659.453.56.764.755l.227-.006a1.226,1.226,0,0,0,.072.146" fill="url(#f)"/><path d="M708.353,937.386l-.178.4c-1.443-1.385-1.126-3.085-.608-4.654a4.256,4.256,0,0,1,3.7-3.2c.236.926-.492,1.338-.962,1.926a3.2,3.2,0,0,0-.64,1.821C709.9,935.152,709,936.223,708.353,937.386Z" fill="#00adc6"/><path d="M715,942.476l3.02,2.06a.687.687,0,0,1,.341.64,2.48,2.48,0,0,1-.408,1.211c-.265.283-.549.417-.884.1-1.333-1.008-2.866-1.79-3.731-3.323C713.55,942.113,714.388,942.565,715,942.476Z" fill="#c4c6c6"/><path d="M743.825,911.059q-.027,2.668-.055,5.337a3.49,3.49,0,0,1-1.332-1.368c1.09-.924,1.044-1.755-.127-2.6a9.455,9.455,0,0,1-1.254-1.331c-.142-.886.408-1.266,1.119-1.528Z" fill="#e2e729"/><path d="M742.176,909.564l-1.119,1.528c-.714-.414-.766-.882-.147-1.444C741.323,909.273,741.693,908.7,742.176,909.564Z" fill="#e2e729"/><path d="M711.317,944.212c-.429,1.069-.7.4-.995-.088Z" fill="#f9f9fd"/><path d="M671.389,907.958c.072-.951.122-1.9.219-2.852q.759-7.374,1.537-14.744a14.656,14.656,0,0,0-1.055-3.386c-2.706.991-5.044,2.762-7.789,3.673a.471.471,0,0,0-.671.116l-1.008,1.986a5.441,5.441,0,0,1,.5,2.775c.021,2.239-.015,4.479.012,6.718a44.953,44.953,0,0,0,.112,4.77c.222,1.233.678,2.477-.182,3.659.754.968.3,4.345.42,5.557.073,1.2-.4,2.5.593,3.55a1.349,1.349,0,0,1,1.033.35c1.177.872,2.4.382,3.62.131a2.484,2.484,0,0,0,1.506-.819,13.049,13.049,0,0,0,.634-3.094c.011-.2.026-.39.041-.584.047-.276,1.053-4.887,1.093-5.164C671.109,909.975,671.905,908.778,671.389,907.958Z" fill="#9da1a1"/><path d="M664.3,890.649l-.671.116c-2.841-1.415-5.7-2.8-8.515-4.262-1.033-.537-1-1.473.037-2.018.984-.517,2.037-.9,3.059-1.349a3.941,3.941,0,0,0,1.714-.856c.183-.246.435-.2.687-.162a5.805,5.805,0,0,1,2.875,1.6c.459.376.794.974,1.519.911.3-.081.46-.018.321.331C665.148,886.885,664.147,888.663,664.3,890.649Z" fill="url(#f)"/><path d="M663.985,880.6c.9-.247,1.683-.912,2.7-.7a23.546,23.546,0,0,1-1.356,5.057l-.321-.331C665.354,883.111,664.245,881.963,663.985,880.6Z" fill="url(#f)"/><path d="M701.551,935.663a6.072,6.072,0,0,1,.382,2.334.971.971,0,0,1-.241,1.073c-1.158,1.458-5.36,2.066-6.918,1a2.367,2.367,0,0,1-.412-2.015c-.309-.485-.052-.915.127-1.353a4.6,4.6,0,0,1,.913-1.338,7.166,7.166,0,0,1,.124-7.014c.7-1.38,1.758-2.205,3.41-1.584a2.491,2.491,0,0,0,1.783-.2c2.317-.783,2.676-.592,3.283,1.741a5.657,5.657,0,0,0,.242.625,3.32,3.32,0,0,1-1.09,2.159c-.424.918-1.994.233-2.139,1.513a8.759,8.759,0,0,0,.585,2.567,1.019,1.019,0,0,1-.049.492Z" fill="url(#f)"/><path d="M714.006,949.9c-2.05,2.2-3.132,2.25-6.723.333a12.567,12.567,0,0,0-1.088,4.849,53.539,53.539,0,0,0-.464,6.528.7.7,0,0,1-.163.491c-.187.795.2,1.658-.288,2.418-1.454-5.419-.076-10.694.806-16C708.562,949.956,711.114,950.905,714.006,949.9Z" fill="#b2b2b2"/><path d="M694.774,940.068a9.349,9.349,0,0,0,5.843-.525A1.762,1.762,0,0,0,701.933,938a.592.592,0,0,0,.226-.016c0,2.029-4.817,4.406-6.256,3.648a1.772,1.772,0,0,1-1.129-1.564Z" fill="#b2b2b2"/><path d="M669.717,922.857a16.366,16.366,0,0,1,3.238,2.654c.249.28.6.579.34,1.023-.193.331-.564.319-.9.359-1.472.177-2.891-.337-4.35-.336-1.013-.269-2.035-.51-3.038-.812-2.122-.64-2.412-1.57-1.07-3.382a3.9,3.9,0,0,1,.619-.551c1.246.092,2.483.3,3.738.282a2.153,2.153,0,0,1,1.423.763Z" fill="url(#f)"/><path d="M644.983,916.749c.829,1.264,2.184,1.57,3.51,1.932a1.112,1.112,0,0,1,.817.336c.294.257.578.526.854.8a9.547,9.547,0,0,1,1.649,2.517c.271.613.552,1.255-.022,1.871l-1.378-.009c-.075.006-.151.013-.226.021a1.217,1.217,0,0,1-1.126-.656,26.705,26.705,0,0,1-6.342-4.156,2.983,2.983,0,0,1,2.264-2.656Z" fill="url(#f)"/><path d="M668.405,922.463c-1.314-.028-2.709.418-3.847-.651q.273-.842.548-1.682a14,14,0,0,0,3.636-.282q-.031.634-.064,1.267C668.339,921.514,668.833,922.082,668.405,922.463Z" fill="#00adc6"/><path d="M651.411,869.474c-.847-.534-1.225-1.081-.181-1.838.286-.208.41-.641.608-.971,1.9-1.661,2.921-3.92,4.094-6.159a2.142,2.142,0,0,1-.516,2.393A29.623,29.623,0,0,0,651.411,869.474Z" fill="#b2b2b2"/><path d="M660.612,882.118l-.687.162c-2.163-.941-4.582-.875-6.769-1.748a4.437,4.437,0,0,1-2.754-5.375Z" fill="#c4c6c6"/><path d="M718.15,945.208c.385.3.267.718.263,1.109-.209-.062-.418-.126-.626-.189Z" fill="#f9f8fb"/><path d="M701.551,935.663a14.34,14.34,0,0,1-.726-1.5c-.766-2.178-.553-2.52,1.684-2.884a5.342,5.342,0,0,0,.645-.186l.124,2.927C703.177,935.069,702.414,935.419,701.551,935.663Z" fill="#00adc6"/><path d="M740.736,916.369c.868.027,1.381-.584,1.944-1.1,1.343-1.541,1.342-1.7-.064-3.15-.387-.4-.789-.786-1.171-1.2-.167-.246-.478-.453-.248-.814a.5.5,0,0,1,.8-.136c.616.442,1.043,1.155,1.866,1.3a1.57,1.57,0,0,0,.478-.044,5.2,5.2,0,0,0,1.574-1.238,1.58,1.58,0,0,0,.015-2.7c-.659-.609-1.274-1.266-1.9-1.913-2.144-2.087-2.144-2.087-3.75-.725-1.148,1.257-2.468,2.346-3.537,3.677a2.034,2.034,0,0,1-.29.6q-6.444,6.4-12.9,12.8a2.073,2.073,0,0,1-1.362.532c-.6.537-.962,1.284-1.61,1.775-.965.832-1.642,1.986-2.844,2.562a2.123,2.123,0,0,1-.657-.191,9.9,9.9,0,0,0-8.781.037,12.59,12.59,0,0,0-2.32,1.656,10.393,10.393,0,0,0-2.821,5.889c-.2,1.136.313,2.346-.36,3.428a.636.636,0,0,0,.655.638c1.668.092,2.526,1.247,3.437,2.428a15.959,15.959,0,0,0,3.431,3.9,2.171,2.171,0,0,0,1,.154,3.648,3.648,0,0,0,2.169-1.128c.43-.5,1.079-.523,1.629-.757,1.384-1.222,2.85-2.354,4.149-3.664a11.068,11.068,0,0,0,3.08-4.354,3.552,3.552,0,0,0-.184-1.65c-1.509-2.782.1-4.44,2.046-6.011.175-.141-.042.041.116-.121q1.37-1.432,2.8-2.808,4.581-4.614,9.2-9.189c.419-.412.734-1.271,1.629-.76,1.345.722,1.21,2.211,1.736,3.359m-26.815,23a2.213,2.213,0,1,1,0,.006Z" fill="#9da1a1"/><path d="M722.113,934.71c1.892,1.409,1.891,2.747.12,4.2a10.451,10.451,0,0,0-2.409,3.184c.015.684-.462,1.117-.818,1.613-.295.37-.524.81-1.011.984a3.975,3.975,0,0,1-2.994-2.21c1.267-1.727,3.162-2.785,4.609-4.322.367-.391.939-.624.619-1.355-.141-.323.044-.81.425-.717C721.926,936.392,721.607,935.134,722.113,934.71Z" fill="#00adc6"/></g></g></svg>